<svg id="Calque_1" data-name="Calque 1" xmlns="http://www.w3.org/2000/svg" xmlns:xlink="http://www.w3.org/1999/xlink" viewBox="0 0 830 472"><defs><style>.cls-1,.cls-5,.cls-8{fill:none;}.cls-2,.cls-6,.cls-7{fill:#4b4b4b;}.cls-3{fill:#dbc7b9;}.cls-4{clip-path:url(#clip-path);}.cls-5,.cls-6,.cls-7{stroke:#4b4b4b;stroke-linecap:round;stroke-linejoin:round;}.cls-5{stroke-width:11px;}.cls-6{stroke-width:6.34px;}.cls-7{stroke-width:5.23px;}.cls-8{stroke:#dbc7b9;stroke-miterlimit:10;stroke-width:12px;}</style><clipPath id="clip-path"><path class="cls-1" d="M254.77,60.08S283.25,70,318.07,105l-69,86.54-52.88-41.37Z"/></clipPath></defs><title>Plan de travail 1</title><rect class="cls-2" x="63.82" y="52.48" width="266.11" height="310.64" rx="113.1" transform="translate(156.8 -75.64) rotate(35.41)"/><path class="cls-3" d="M207.14,196.7,204,194.45a38.26,38.26,0,0,1-9-53.2l57.83-81.63c6.58,2.59,15.38,5.5,32.49,17.65l3.16,2.25c17.1,12.16,28.12,23.06,30.35,26.68l-58.47,81.51A38.27,38.27,0,0,1,207.14,196.7Z"/><rect class="cls-3" x="185.81" y="182.44" width="17.25" height="62.33" rx="7.17" transform="translate(159.72 -73.14) rotate(35.41)"/><g class="cls-4"><rect class="cls-2" x="254.52" y="66.7" width="10.73" height="107.95" rx="4.82" transform="translate(117.98 -128.25) rotate(35.41)"/><rect class="cls-2" x="272.82" y="77.55" width="10.73" height="109.88" rx="4.87" transform="translate(128.21 -136.67) rotate(35.41)"/><rect class="cls-2" x="237.71" y="51.3" width="10.73" height="111.04" rx="4.89" transform="translate(106.84 -121.07) rotate(35.41)"/></g><path class="cls-5" d="M390.66,103.31s35-63-27-42c-4.29,1.46-12.07,4.69-14,8C343.91,79.2,346.58,84.81,358,85c20.64.32,51.64-43.68,26.64-53.68-14.88-5.95-47-15-96,49"/><path class="cls-5" d="M390.71,103.31s-53.42,100.43,61.53,102.17C573.66,207.31,540.48,130,540.48,130S512.61,53.39,383.74,246.11c0,0-98.68,126.55,27.87,109.14a150,150,0,0,0,42.82-15.74c62-34.26,48-85.53,2.73-50.7"/><path class="cls-6" d="M510.48,330.3a78,78,0,0,1,8-14.9,67.87,67.87,0,0,1,11.31-12.86,57.66,57.66,0,0,1,9-6.29,17.47,17.47,0,0,1,10.54-2.45A16.83,16.83,0,0,1,556.1,297q3.72,2.7,3.47,6.55-2.31,5.4-5,10.8t-5.27,11.56A88,88,0,0,0,544.66,338q-.51,2.57-1.28,6.42a8,8,0,0,0,1,6.43q2.57,3.6,6.68.51a38.77,38.77,0,0,0,8.1-8.74,126.94,126.94,0,0,0,7.19-11.44c2.14-3.85,3.56-6.38,4.24-7.58q.52-1,.9-.39a2.31,2.31,0,0,1,.39,1.16c.17.17,0,.52-.39,1a2.41,2.41,0,0,0-.64,1L564.46,337q-1.29,2.06-3.22,5.39a36.11,36.11,0,0,1-4.62,6.3,23.15,23.15,0,0,1-5.66,4.63,6.06,6.06,0,0,1-6,.13,6.63,6.63,0,0,1-3.47-4.76,19.5,19.5,0,0,1,0-7.07,58,58,0,0,1,1.8-7.58c.77-2.48,1.41-4.5,1.93-6l-4.37,6.43c-1.38,1.88-3,4.07-5,6.55a71.36,71.36,0,0,1-6.42,7.07,26.32,26.32,0,0,1-7.46,5.14,10.2,10.2,0,0,1-8.09.26,7.16,7.16,0,0,1-4.89-3.86,15.12,15.12,0,0,1-1.28-6.3,27.6,27.6,0,0,1,.9-6.94A50.36,50.36,0,0,1,510.48,330.3Zm21.33-26a81.55,81.55,0,0,0-11.18,13.37,94.1,94.1,0,0,0-8.35,15.16c-.52,1.38-1.07,3-1.68,4.76a24.81,24.81,0,0,0-1.15,5.4,10.82,10.82,0,0,0,.64,5,6.93,6.93,0,0,0,3.21,3.6,8.2,8.2,0,0,0,6.94.51,22.12,22.12,0,0,0,6.82-4,50.67,50.67,0,0,0,6-6q2.82-3.35,4.37-5.4,2.82-3.6,5.39-7.33c1.71-2.48,3.35-5.09,4.89-7.84q2.31-4.87,5-9.51t5.53-9q-1.54-5.15-5-6.43a12.84,12.84,0,0,0-7.45-.38,24.79,24.79,0,0,0-7.84,3.34A36.13,36.13,0,0,0,531.81,304.34Z"/><path class="cls-6" d="M596.07,352.67a8.19,8.19,0,0,1-2.31-6,27.69,27.69,0,0,1,1.15-7.72,58.67,58.67,0,0,1,2.83-7.71l2.7-6a53.6,53.6,0,0,1,3-6,56.55,56.55,0,0,0,3.34-7.19,40.66,40.66,0,0,0,2-7.46,9.8,9.8,0,0,0-.9-6.55,4.67,4.67,0,0,0-2.69-2.57,7.9,7.9,0,0,0-4-.52,16.25,16.25,0,0,0-8.87,3.86,57,57,0,0,0-6.81,6.68,63.9,63.9,0,0,0-6.3,8.48q-2.7,4.38-5,9l-8,18.51c-.85,2.05-1.75,4.2-2.7,6.42a20.86,20.86,0,0,1-3.72,5.91,1.2,1.2,0,0,1-1.16.39c-.43-.08-.47-.47-.13-1.16l4.89-10.54,7.71-20.56q1.79-4.62,3.6-9.12t3.85-8.87c.68-1.37,1.58-3.22,2.7-5.53s2.44-3.73,4-4.24c.52-.17.73.17.65,1a5.8,5.8,0,0,1-.39,1.8q-1,2.31-2.95,6.17c-1.29,2.57-2.1,4.11-2.45,4.62-.51,1.2-1,2.36-1.54,3.47a24.85,24.85,0,0,0-1.28,3.47,77.93,77.93,0,0,1,8.35-11.69,31.35,31.35,0,0,1,11.18-8.36,13,13,0,0,1,7.84-.64,7.47,7.47,0,0,1,5.53,5.27,17.85,17.85,0,0,1,.13,9.25,52.47,52.47,0,0,1-3,9c-1.2,2.92-2.53,5.78-4,8.61s-2.88,5.7-4.25,8.61c-.34,1-.81,2.28-1.41,3.73A35.39,35.39,0,0,0,596.2,343a14.87,14.87,0,0,0-.52,4.62,6.25,6.25,0,0,0,1.42,3.73q1.8,1.8,5.65.26a17.2,17.2,0,0,0,6.82-6.17l5-7.45q2.31-3.6,4.5-7.2t4.24-7.2c.34-.68.72-.85,1.15-.51a.85.85,0,0,1,.13,1.28c-.17.35-.51.95-1,1.8s-1.11,1.84-1.8,3l-2,3.34c-.69,1.11-1.2,2-1.54,2.7Q615.6,339,612,344.7a22.73,22.73,0,0,1-8.49,8.22,13.4,13.4,0,0,1-3.59,1.16A4.18,4.18,0,0,1,596.07,352.67Z"/><path class="cls-6" d="M623.06,323.36q3.86-9.76,8.35-19.15t9.39-18.63q2.06-4.36,4.49-8.74l4.76-8.48c-2.23-.34-5.4-.65-9.51-.9s-7.46-.39-10-.39a16.85,16.85,0,0,0-5.14.26q-2.31.51-2.82,1.8v.51q0,1-.78.9a.82.82,0,0,1-.77-.9c0-1.88,1.12-3,3.34-3.47a31.6,31.6,0,0,1,5.66-.64h4.76c2,0,4,0,6,.13l5.91.25q2.82.13,4.62.39,2.58-4.37,5.27-8.23t5.53-7.71c.68-.85,1.5-1.88,2.44-3.08a38.39,38.39,0,0,1,3.09-3.47,15.28,15.28,0,0,1,3.6-2.7,6.59,6.59,0,0,1,4-.77c1.71.17,2.83.81,3.34,1.93a8.81,8.81,0,0,1,.77,3.72,13.9,13.9,0,0,1-.77,4.37c-.51,1.55-.94,2.75-1.28,3.6a73.52,73.52,0,0,1-7.2,14.14l3.34.26q1,0,.9,1c-.09.69-.73,1-1.93,1l-3.6-.25a94.93,94.93,0,0,1-6,9.63q-3.21,4.5-6.81,9.13-6.69,9-14.14,17.86a190.13,190.13,0,0,1-15.68,16.58l-.77,1a34.29,34.29,0,0,0-2.18,5.53,59.27,59.27,0,0,0-2.19,8.87,26.9,26.9,0,0,0-.13,8.61c.43,2.66,1.84,4.24,4.25,4.75a8.15,8.15,0,0,0,4.88-.51,29.57,29.57,0,0,0,5.14-2.7,28.31,28.31,0,0,0,4.63-3.73,24.42,24.42,0,0,0,3.08-3.6,78.43,78.43,0,0,0,5.91-8.86q2.57-4.5,5.4-9.13c.34-.51.68-.64,1-.39a1,1,0,0,1,.26,1.16q-2.84,4.38-5.66,9.38a66.49,66.49,0,0,1-6.42,9.39,45.5,45.5,0,0,1-3.47,3.59,33.31,33.31,0,0,1-4.76,3.73,27.09,27.09,0,0,1-5.27,2.7,8,8,0,0,1-5.27.26,6.85,6.85,0,0,1-5.27-4.89,23.24,23.24,0,0,1-.77-8.61,44.66,44.66,0,0,1,1.8-9.38A48.24,48.24,0,0,1,623.06,323.36Zm20.82-38q-3.35,6.94-6.68,13.88t-6.43,14.14l-1.54,3.08a22.53,22.53,0,0,0-1.29,3.09L638.23,309q7.71-9,15-18.64t14-20.43l-14.39-1Zm10.28-18.76,14.14,1.28q2.57-4.36,4.88-8.87a66.68,66.68,0,0,0,3.6-8.09,16.15,16.15,0,0,0,1.16-6,2.9,2.9,0,0,0-2.44-3q-2.84-.51-5.66,2.44c-1.89,2-3.34,3.56-4.37,4.76a58.41,58.41,0,0,0-4.24,5.91c-1.29,2.06-2.61,4.11-4,6.17Z"/><path class="cls-6" d="M652.62,352.15a5.73,5.73,0,0,0,5-.25,24,24,0,0,0,4.76-3.35,26.64,26.64,0,0,0,4.11-4.62c1.19-1.71,2.22-3.09,3.08-4.12,1-1.37,2-2.78,3-4.24s1.84-2.87,2.7-4.24c.68-1,1.37-2.18,2-3.47a21.32,21.32,0,0,1,2.06-3.21,3.2,3.2,0,0,1,1.29-.77c.51-.17.51.25,0,1.28l-2.83,4.89q-2.84,4.36-5.79,8.86a62.39,62.39,0,0,1-6.55,8.36,24.13,24.13,0,0,1-3.34,3.21,22.63,22.63,0,0,1-4.11,2.7,8.21,8.21,0,0,1-4.25.9,5.7,5.7,0,0,1-4-2.18,8.52,8.52,0,0,1-1.93-4.38,18.54,18.54,0,0,1,0-5.26A36.88,36.88,0,0,1,649,337c.51-1.72,1-3.26,1.54-4.63a127.27,127.27,0,0,1,18.25-36c.34-.51.64-.6.9-.25a1.68,1.68,0,0,1,.39,1q-2.83,5.91-5.79,11.43T658.53,320q-1.29,3.09-3.09,6.68c-1.2,2.41-2.31,4.89-3.34,7.46a37.79,37.79,0,0,0-2.18,7.71,18.24,18.24,0,0,0,.13,7.2A4.71,4.71,0,0,0,652.62,352.15Zm26-73.77a3.06,3.06,0,0,1-2.44-1,3.76,3.76,0,0,1,0-4.88,3.09,3.09,0,0,1,2.44-1,3,3,0,0,1,2.57,1,4.25,4.25,0,0,1,0,4.88A3,3,0,0,1,678.58,278.38Z"/><path class="cls-6" d="M705.31,352.67a8.19,8.19,0,0,1-2.31-6,27.69,27.69,0,0,1,1.15-7.72A58.67,58.67,0,0,1,707,331.2l2.7-6a55.09,55.09,0,0,1,3-6,55.26,55.26,0,0,0,3.35-7.19,40.66,40.66,0,0,0,2-7.46,9.8,9.8,0,0,0-.9-6.55,4.66,4.66,0,0,0-2.7-2.57,7.85,7.85,0,0,0-4-.52,16.25,16.25,0,0,0-8.87,3.86,56.26,56.26,0,0,0-6.81,6.68,63.9,63.9,0,0,0-6.3,8.48q-2.7,4.38-5,9l-8,18.51c-.85,2.05-1.75,4.2-2.7,6.42a20.86,20.86,0,0,1-3.72,5.91,1.21,1.21,0,0,1-1.16.39c-.43-.08-.47-.47-.13-1.16l4.88-10.54,7.72-20.56q1.79-4.62,3.59-9.12t3.86-8.87c.68-1.37,1.58-3.22,2.7-5.53s2.44-3.73,4-4.24c.52-.17.73.17.65,1a5.8,5.8,0,0,1-.39,1.8c-.69,1.54-1.67,3.6-3,6.17s-2.1,4.11-2.44,4.62c-.51,1.2-1,2.36-1.54,3.47a26.23,26.23,0,0,0-1.29,3.47,78.72,78.72,0,0,1,8.36-11.69,31.26,31.26,0,0,1,11.18-8.36,13,13,0,0,1,7.84-.64,7.48,7.48,0,0,1,5.53,5.27,17.75,17.75,0,0,1,.12,9.25,52.47,52.47,0,0,1-3,9c-1.2,2.92-2.53,5.78-4,8.61s-2.87,5.7-4.24,8.61c-.34,1-.81,2.28-1.41,3.73a35.39,35.39,0,0,0-1.54,4.63,14.58,14.58,0,0,0-.52,4.62,6.25,6.25,0,0,0,1.42,3.73c1.19,1.2,3.08,1.29,5.65.26a17.11,17.11,0,0,0,6.81-6.17q3-4.37,5-7.45,2.31-3.6,4.49-7.2t4.24-7.2c.35-.68.73-.85,1.16-.51a.85.85,0,0,1,.13,1.28c-.17.35-.51.95-1,1.8s-1.11,1.84-1.8,3l-2,3.34c-.69,1.11-1.2,2-1.55,2.7q-2.56,3.85-6.16,9.51a22.8,22.8,0,0,1-8.49,8.22,13.59,13.59,0,0,1-3.6,1.16A4.17,4.17,0,0,1,705.31,352.67Z"/><path class="cls-6" d="M776,345.73a12,12,0,0,0,1.8-5,45.65,45.65,0,0,1,1-5c.34-.85.69-1.67,1-2.44s.86-1.07,1.54-.9c1.71.34,2,2.06.77,5.14a23,23,0,0,1-2.31,4.88,38,38,0,0,1-2.83,4.37,27.43,27.43,0,0,1-6.29,6.3,6.13,6.13,0,0,1-7.07.39,6.61,6.61,0,0,1-3.47-4.76,19.5,19.5,0,0,1,0-7.07A54.94,54.94,0,0,1,762,334c.77-2.48,1.41-4.5,1.92-6l-4.37,6.43c-1.37,1.88-3,4.07-5,6.55a71.36,71.36,0,0,1-6.42,7.07,26.46,26.46,0,0,1-7.46,5.14,10.23,10.23,0,0,1-8.1.26,7.16,7.16,0,0,1-4.88-3.86,15.12,15.12,0,0,1-1.28-6.3,27.6,27.6,0,0,1,.9-6.94,52.35,52.35,0,0,1,1.92-6,78,78,0,0,1,8-14.9,67.53,67.53,0,0,1,11.31-12.86,57.66,57.66,0,0,1,9-6.29A17.46,17.46,0,0,1,768,293.8a16.89,16.89,0,0,1,6.81,3.22q3.72,2.7,3.47,6.55-2.31,5.4-5,10.8T768,325.93A88,88,0,0,0,763.4,338c-.35,1.71-.77,3.85-1.28,6.42a8,8,0,0,0,1,6.43c1.71,2.23,3.77,2.65,6.17,1.28A21.44,21.44,0,0,0,776,345.73Zm-25.45-41.39a81.55,81.55,0,0,0-11.18,13.37A95,95,0,0,0,731,332.87c-.51,1.38-1.07,3-1.67,4.76a24.24,24.24,0,0,0-1.15,5.4,10.82,10.82,0,0,0,.64,5,6.93,6.93,0,0,0,3.21,3.6,8.2,8.2,0,0,0,6.94.51,22,22,0,0,0,6.81-4,49.93,49.93,0,0,0,6-6c1.89-2.23,3.34-4,4.37-5.4q2.84-3.6,5.4-7.33t4.88-7.84q2.32-4.87,5-9.51c1.8-3.08,3.63-6.08,5.52-9-1-3.43-2.7-5.57-5-6.43a12.84,12.84,0,0,0-7.45-.38,24.79,24.79,0,0,0-7.84,3.34A36.13,36.13,0,0,0,750.55,304.34Z"/><path class="cls-7" d="M606.5,170.71a15.54,15.54,0,0,1,.74,6.58,9.82,9.82,0,0,1-2.44,5.94,10.42,10.42,0,0,1-7.53,3.5,30.38,30.38,0,0,1-9.65-.95c-.85,1.13-1.74,2.22-2.66,3.28s-1.87,2.09-2.86,3.08a21.9,21.9,0,0,1-2.65,1.91c-.92.57-1.8,1.13-2.65,1.7a100.26,100.26,0,0,1,8.16,6.36q3.93,3.39,8.17,6.58c2.26,1.69,4.74,3.36,7.43,5a53.25,53.25,0,0,0,8.48,4.14,51.43,51.43,0,0,0,9,2.54,22.85,22.85,0,0,0,8.8,0,12.6,12.6,0,0,0,5.83-2.65,26.27,26.27,0,0,0,4.78-5.41,4.45,4.45,0,0,1,2-2c.64-.22,1.06-.14,1.28.21a2.29,2.29,0,0,1,.1,1.59,4.26,4.26,0,0,1-1.27,2.12,40.72,40.72,0,0,1-5.41,4.56,18.67,18.67,0,0,1-6.47,2.87,26.28,26.28,0,0,1-12.83.21,47.6,47.6,0,0,1-12-4.46,60,60,0,0,1-12.41-7.74q-5.62-4.56-11.14-9.44l-4.45-3.6a21,21,0,0,1-10,1.06c-1.42-.29-3.33-.78-5.73-1.49a15,15,0,0,1-5.94-3.18q-3.18-2.76-1.91-5.2c.85-1.62,2.48-2.3,4.88-2a18.3,18.3,0,0,1,4.46,1.06q2.33.84,4.56,1.91t4,2.12c1.2.71,2,1.2,2.44,1.48l3.6,2.34a16.54,16.54,0,0,0,1.81-.85,7.87,7.87,0,0,0,1.59-1.28,37.35,37.35,0,0,0,7.21-7.63,30,30,0,0,1-2.86-1,8.65,8.65,0,0,1-2.44-1.38A27,27,0,0,1,571,171.25a34.79,34.79,0,0,1-3.28-14.75,38.4,38.4,0,0,1,3.71-16.86,44.48,44.48,0,0,1,9.86-13.47,48.73,48.73,0,0,1,14-9.12,50.66,50.66,0,0,1,16.55-4,62.16,62.16,0,0,1,10.92.1,79.71,79.71,0,0,1,10.72,1.81,29.32,29.32,0,0,1,7-.43A51.17,51.17,0,0,1,646.8,116a10.24,10.24,0,0,1,5.52,3.6c.84,1.27.91,2.3.21,3.08s-1.7.88-3,.32c-2.41-1.14-5.13-2.3-8.17-3.5s-5.76-2.16-8.17-2.87a27.92,27.92,0,0,0-5.62,2.76,23.28,23.28,0,0,0-4.77,4A55.42,55.42,0,0,0,611.06,140q-4.35,9.33-8.59,18.24-3,6.8-6.26,13.57a88.12,88.12,0,0,1-7.53,12.73,27.33,27.33,0,0,0,8.59,1.17,8.25,8.25,0,0,0,6.68-3.08,9.82,9.82,0,0,0,1.8-5.19,6.11,6.11,0,0,0-2-5.41,4.45,4.45,0,0,1-1.27-1.49,1.57,1.57,0,0,1,0-1.91c.28-.7.7-1.06,1.27-1.06a3.25,3.25,0,0,1,1.91,1.7A11.63,11.63,0,0,0,606.5,170.71Zm-39.88,19.94a33.44,33.44,0,0,0-4.88-2.33,16.05,16.05,0,0,0-5.94-1.27c-2,0-3.18.56-3.61,1.7s.07,2.33,1.49,3.6A15.08,15.08,0,0,0,559.3,195q3.5,1,5.19,1.38a17,17,0,0,0,4.67.22,16,16,0,0,0,4.46-1.07c-1.14-.84-2.3-1.69-3.5-2.54S567.75,191.36,566.62,190.65Zm30.75-27.15q3.61-8.06,7.32-16.12a132,132,0,0,1,8.59-15.7,67.7,67.7,0,0,1,7.54-9.12,27.27,27.27,0,0,1,9.86-6.57,60.45,60.45,0,0,0-15.7-1.7,48.58,48.58,0,0,0-16.44,3.29A49.18,49.18,0,0,0,584.33,126,44.56,44.56,0,0,0,574,138.58a36.69,36.69,0,0,0-4.45,16.23,36.11,36.11,0,0,0,2.33,14.95,22.84,22.84,0,0,0,9.54,11.56,13.31,13.31,0,0,0,2.34,1.49,16.14,16.14,0,0,0,2.76,1.06,62.1,62.1,0,0,0,5.94-10.08Q595,168.39,597.37,163.5Zm47.1-44.33c1.83.85,3.5,1.62,5,2.33s2.23.64,2.23-.21a2.34,2.34,0,0,0-1.06-1.7A13.74,13.74,0,0,0,648,118a26.64,26.64,0,0,0-3.29-1.27,10.26,10.26,0,0,0-3-.53c-.85-.14-1.7-.25-2.55-.32a5.12,5.12,0,0,0-2.33.32c1.27.42,2.55.88,3.82,1.38S643.19,118.6,644.47,119.17Z"/><path class="cls-7" d="M670.56,191.29a9.77,9.77,0,0,0,1.48-4.14,37.52,37.52,0,0,1,.85-4.13c.28-.71.57-1.38.85-2a1,1,0,0,1,1.27-.74c1.41.29,1.63,1.7.64,4.24a19.5,19.5,0,0,1-1.91,4,33.87,33.87,0,0,1-2.33,3.61,22.89,22.89,0,0,1-5.2,5.2,5.06,5.06,0,0,1-5.83.32,5.48,5.48,0,0,1-2.87-3.93,16.28,16.28,0,0,1,0-5.83,46.32,46.32,0,0,1,1.49-6.26q.94-3.07,1.59-5L657,182q-1.69,2.34-4.13,5.41a59.56,59.56,0,0,1-5.31,5.83,21.81,21.81,0,0,1-6.15,4.24,8.47,8.47,0,0,1-6.68.22,5.91,5.91,0,0,1-4-3.19,12.32,12.32,0,0,1-1.06-5.19,23,23,0,0,1,.74-5.73,44.25,44.25,0,0,1,1.59-5,64.72,64.72,0,0,1,6.58-12.3,55.65,55.65,0,0,1,9.33-10.61,47.24,47.24,0,0,1,7.42-5.19,14.4,14.4,0,0,1,8.7-2,13.92,13.92,0,0,1,5.62,2.65,6,6,0,0,1,2.87,5.41c-1.28,3-2.65,5.94-4.14,8.91s-2.94,6.15-4.35,9.55a73.69,73.69,0,0,0-3.82,10q-.42,2.12-1.06,5.3a6.64,6.64,0,0,0,.85,5.3A3.55,3.55,0,0,0,665,196.6,17.76,17.76,0,0,0,670.56,191.29Zm-21-34.15a66.72,66.72,0,0,0-9.23,11,76.88,76.88,0,0,0-6.89,12.52c-.43,1.13-.89,2.43-1.38,3.92a19.69,19.69,0,0,0-1,4.45,9,9,0,0,0,.53,4.14,5.75,5.75,0,0,0,2.65,3,6.81,6.81,0,0,0,5.73.43,18.48,18.48,0,0,0,5.62-3.29,42,42,0,0,0,5-5c1.55-1.83,2.76-3.32,3.6-4.45,1.56-2,3-4,4.46-6.05s2.76-4.21,4-6.47q1.9-4,4.14-7.85c1.48-2.54,3-5,4.56-7.42q-1.27-4.25-4.14-5.31a10.64,10.64,0,0,0-6.15-.31,20.39,20.39,0,0,0-6.47,2.75A30.09,30.09,0,0,0,649.56,157.14Z"/><line class="cls-8" x1="68.83" y1="158.63" x2="284.92" y2="312.97"/><path class="cls-2" d="M43.34,398.08H57.17v30.65H68.63v10.9H43.34Zm21.81,36.56v-1.49h-14V403.06H49.57v31.58Z"/><path class="cls-2" d="M83.15,398.08h10l15.76,41.55H95.79l-1.37-3.74H81.84l-1.37,3.74H67.39Zm-6.48,36.56,1.18-3.11H98.41l1.18,3.11h1.75l-12-31.58H87l-12,31.58Zm11.46-30.08L97.85,430H78.41Zm2.8,22.17-2.8-7.28-2.8,7.28Z"/><path class="cls-2" d="M121.33,418.89a22.45,22.45,0,0,1,1.74-9,21.08,21.08,0,0,1,4.74-6.88,20.68,20.68,0,0,1,7-4.39,23.49,23.49,0,0,1,8.48-1.53,26.3,26.3,0,0,1,6.32.69,30.57,30.57,0,0,1,4.76,1.56,21.85,21.85,0,0,1,4,2.18L151.79,413a22.83,22.83,0,0,0-2.18-1.43,21.62,21.62,0,0,0-2.52-1,11,11,0,0,0-3.34-.47,9,9,0,0,0-3.55.69,9.12,9.12,0,0,0-2.83,1.87,8.6,8.6,0,0,0-1.9,2.77,8.44,8.44,0,0,0-.69,3.4,8.12,8.12,0,0,0,.72,3.39,8.77,8.77,0,0,0,2,2.77,9.35,9.35,0,0,0,2.93,1.87,9.61,9.61,0,0,0,3.68.69,11.75,11.75,0,0,0,3.55-.5,13.17,13.17,0,0,0,2.61-1.12,9.74,9.74,0,0,0,2.18-1.62L159,435.89a18.9,18.9,0,0,1-4,2.43,34.3,34.3,0,0,1-4.8,1.62,24.93,24.93,0,0,1-6.42.75,24.66,24.66,0,0,1-9-1.59,21.09,21.09,0,0,1-7.1-4.46,20.21,20.21,0,0,1-4.67-6.88A22.79,22.79,0,0,1,121.33,418.89Zm7.85,0a15.08,15.08,0,0,1,1-5.61,13.21,13.21,0,0,1,7.44-7.6,15.28,15.28,0,0,1,6-1.12,17,17,0,0,1,2.9.22,12.14,12.14,0,0,1,2.14.53,7.83,7.83,0,0,1,1.81.74l.87-1.49c-.66-.29-1.37-.56-2.11-.81a22.09,22.09,0,0,0-2.43-.56,17.69,17.69,0,0,0-3.18-.25,16.59,16.59,0,0,0-6.07,1.12,15.48,15.48,0,0,0-5.11,3.21,15.71,15.71,0,0,0-4.89,11.62,16.19,16.19,0,0,0,1.28,6.6,14.91,14.91,0,0,0,3.51,5,15.75,15.75,0,0,0,5.24,3.21,17.87,17.87,0,0,0,6.35,1.12,16.29,16.29,0,0,0,3.36-.31,20.44,20.44,0,0,0,2.56-.69,13,13,0,0,0,2.12-1l-.88-1.5a7.72,7.72,0,0,1-1.86.94,14.67,14.67,0,0,1-2.25.65,14.47,14.47,0,0,1-3.05.28,16.15,16.15,0,0,1-6.17-1.12,13.78,13.78,0,0,1-4.64-3,13.46,13.46,0,0,1-2.92-4.55A15.06,15.06,0,0,1,129.18,418.89Z"/><path class="cls-2" d="M177.51,440.69a23.83,23.83,0,0,1-7.1-1,14.65,14.65,0,0,1-5.42-3,13.13,13.13,0,0,1-3.45-5.05,19.27,19.27,0,0,1-1.22-7.16V398.08h13.27v25.85a5.31,5.31,0,0,0,.9,3.33,4.51,4.51,0,0,0,6,0,5.24,5.24,0,0,0,.91-3.33V398.08h13.33v26.41a19.27,19.27,0,0,1-1.22,7.16,13,13,0,0,1-3.48,5.05,14.9,14.9,0,0,1-5.46,3A23.74,23.74,0,0,1,177.51,440.69Zm0-7.48q-9.34,0-9.34-9.15v-21h-1.62v21q0,5.22,2.83,8t8.13,2.77q5.3,0,8.16-2.77t2.87-8v-21h-1.68v21Q186.86,433.21,177.51,433.21Z"/><path class="cls-2" d="M198.94,398.08H213v41.55H198.94Zm7.85,36.56V403.06h-1.62v31.58Z"/><path class="cls-2" d="M216.26,426.73a21.33,21.33,0,0,0,2.86.69,23.31,23.31,0,0,0,2.84.5,28.21,28.21,0,0,0,3.2.18c1.91,0,2.87-.7,2.87-2.11a2.37,2.37,0,0,0-.87-1.65,25.31,25.31,0,0,0-2.21-1.87c-.9-.69-1.85-1.45-2.87-2.28a21,21,0,0,1-2.87-2.86,15.06,15.06,0,0,1-2.21-3.65,11.6,11.6,0,0,1-.87-4.64,11.94,11.94,0,0,1,1.06-5.17,10.36,10.36,0,0,1,2.93-3.73,13.08,13.08,0,0,1,4.39-2.28,18.15,18.15,0,0,1,5.39-.78c1,0,2,.06,3,.16l2.68.28,2.67.37v11.65l-1.12-.12-1.12-.13c-.41,0-.85-.06-1.31-.06l-.93,0a5.11,5.11,0,0,0-1.06.16,2.22,2.22,0,0,0-.87.43,1.09,1.09,0,0,0-.38.88c0,.33.29.74.85,1.24s1.24,1.08,2,1.75,1.7,1.43,2.68,2.3a18.37,18.37,0,0,1,2.68,3,17.43,17.43,0,0,1,2,3.8,12.73,12.73,0,0,1,.84,4.73,15,15,0,0,1-.87,5.14,10.91,10.91,0,0,1-2.71,4.18,13,13,0,0,1-4.7,2.8,20.25,20.25,0,0,1-6.79,1,42.52,42.52,0,0,1-4.39-.22c-1.35-.15-2.54-.32-3.58-.53a30.08,30.08,0,0,1-3.3-.75Zm5.23,7.48c.58.12,1.2.23,1.87.31s1.19.16,1.83.22,1.3.09,2,.09a14.17,14.17,0,0,0,3.39-.4,8.58,8.58,0,0,0,3-1.34,6.93,6.93,0,0,0,2.09-2.4,7.55,7.55,0,0,0,.78-3.58,7,7,0,0,0-.91-3.43,15.69,15.69,0,0,0-2.3-3.11,40.69,40.69,0,0,0-3-2.87c-1.06-.91-2.06-1.84-3-2.77a17.27,17.27,0,0,1-2.31-2.8,5.31,5.31,0,0,1-.9-2.9,4.31,4.31,0,0,1,1.43-3.46,7.09,7.09,0,0,1,4.61-1.21l1,0c.35,0,.69.05,1,.09a6.59,6.59,0,0,0,1,.07v-1.62a6.19,6.19,0,0,1-.93-.07c-.29,0-.61-.07-1-.09s-.71,0-1.09,0a9.41,9.41,0,0,0-5.54,1.53,5.4,5.4,0,0,0-2.18,4.76,6.34,6.34,0,0,0,.9,3.27,16.35,16.35,0,0,0,2.31,3,40.32,40.32,0,0,0,3,2.83c1.06.92,2.05,1.84,3,2.78a15.42,15.42,0,0,1,2.3,2.89,6,6,0,0,1,.91,3.12,5.37,5.37,0,0,1-2,4.54,8.93,8.93,0,0,1-5.57,1.56,21.72,21.72,0,0,1-3.86-.31c-.63-.08-1.23-.19-1.81-.31Z"/><path class="cls-2" d="M245.41,398.08h14.07v41.55H245.41Zm7.85,36.56V403.06h-1.62v31.58Z"/><path class="cls-2" d="M263.84,398.08h10.9l11.47,16v-16h13v41.55h-11l-11.4-15.95v15.95h-13Zm7.42,36.56V405.87l20.55,28.77h1.62V403.06h-1.62v28.78l-20.55-28.78h-1.62v31.58Z"/><path class="cls-2" d="M303.58,398.08h24.48V409H316.85v4.61h11v10.34h-11v4.8H328.5v10.9H303.58Zm20.31,36.56v-1.49H311.43V419.51h11.84V418H311.43V404.56h12.46v-1.5H309.81v31.58Z"/><path class="cls-2" d="M377,413.9a16.44,16.44,0,0,1-1.49,7.32,13.12,13.12,0,0,1-4.08,4.89,17.45,17.45,0,0,1-6.05,2.74,30.36,30.36,0,0,1-7.44.87v9.91H344.69V398.08H358a30.36,30.36,0,0,1,7.44.87,17.64,17.64,0,0,1,6.05,2.74,13.2,13.2,0,0,1,4.08,4.89A16.5,16.5,0,0,1,377,413.9Zm-6,0a11.24,11.24,0,0,0-1-4.86,8.69,8.69,0,0,0-2.71-3.36,12,12,0,0,0-4.14-2,19.54,19.54,0,0,0-5.2-.66h-7v31.58h1.62v-9.9H358a20,20,0,0,0,5.2-.65,12,12,0,0,0,4.14-2,8.69,8.69,0,0,0,2.71-3.36A11.24,11.24,0,0,0,371,413.9Zm-1.74,0a9.75,9.75,0,0,1-.94,4.49,7.55,7.55,0,0,1-2.49,2.86,10.4,10.4,0,0,1-3.58,1.53,19,19,0,0,1-4.27.47h-5.42V404.56H358a18.45,18.45,0,0,1,4.27.47,10.58,10.58,0,0,1,3.58,1.52,7.58,7.58,0,0,1,2.49,2.87A9.71,9.71,0,0,1,369.24,413.9ZM358,418.51h.56a5,5,0,0,0,3.77-1.21,5.59,5.59,0,0,0,0-6.79,5,5,0,0,0-3.77-1.22H358Z"/><path class="cls-2" d="M379.2,418.89a21.31,21.31,0,0,1,1.71-8.48,21.86,21.86,0,0,1,11.62-11.61,21.71,21.71,0,0,1,16.94,0,21.77,21.77,0,0,1,11.62,11.61,21.86,21.86,0,0,1,0,16.95A21.77,21.77,0,0,1,409.47,439a21.71,21.71,0,0,1-16.94,0,21.86,21.86,0,0,1-11.62-11.61A21.26,21.26,0,0,1,379.2,418.89Zm5.86,0a15.49,15.49,0,0,0,1.24,6.19,16.13,16.13,0,0,0,8.5,8.51,16.12,16.12,0,0,0,12.4,0,16,16,0,0,0,8.5-8.51,16,16,0,0,0,0-12.39,16,16,0,0,0-8.5-8.5,16,16,0,0,0-12.4,0,16.06,16.06,0,0,0-8.5,8.5A15.53,15.53,0,0,0,385.06,418.89ZM401,433.21a13.79,13.79,0,0,1-5.57-1.12,14.52,14.52,0,0,1-7.63-7.63,14.44,14.44,0,0,1,0-11.15,14.52,14.52,0,0,1,7.63-7.63,14.44,14.44,0,0,1,11.15,0,14.61,14.61,0,0,1,7.63,7.63,14.44,14.44,0,0,1,0,11.15,14.61,14.61,0,0,1-7.63,7.63A13.84,13.84,0,0,1,401,433.21Zm-8.72-14.32a8.42,8.42,0,0,0,.69,3.39,8.78,8.78,0,0,0,4.64,4.64,8.7,8.7,0,0,0,6.79,0,8.78,8.78,0,0,0,4.64-4.64,8.82,8.82,0,0,0,0-6.79,8.78,8.78,0,0,0-4.64-4.64,8.7,8.7,0,0,0-6.79,0,8.78,8.78,0,0,0-4.64,4.64A8.44,8.44,0,0,0,392.28,418.89Z"/><path class="cls-2" d="M443.23,440.69a23.83,23.83,0,0,1-7.1-1,14.65,14.65,0,0,1-5.42-3,13.13,13.13,0,0,1-3.45-5.05,19.27,19.27,0,0,1-1.22-7.16V398.08h13.27v25.85a5.31,5.31,0,0,0,.9,3.33,4.52,4.52,0,0,0,6.05,0,5.31,5.31,0,0,0,.9-3.33V398.08h13.33v26.41a19.27,19.27,0,0,1-1.22,7.16,13,13,0,0,1-3.48,5.05,14.94,14.94,0,0,1-5.45,3A23.85,23.85,0,0,1,443.23,440.69Zm0-7.48q-9.33,0-9.34-9.15v-21h-1.62v21c0,3.48.94,6.15,2.84,8s4.59,2.77,8.12,2.77,6.25-.92,8.16-2.77,2.87-4.52,2.87-8v-21h-1.68v21Q452.58,433.21,443.23,433.21Z"/><path class="cls-2" d="M464.66,398.08H479a24.61,24.61,0,0,1,7.38,1.06,17.36,17.36,0,0,1,5.89,3.11,14.38,14.38,0,0,1,3.89,5.08,16.43,16.43,0,0,1,1.4,6.95,14.29,14.29,0,0,1-.87,5.29,16.34,16.34,0,0,1-1.93,3.61,13.23,13.23,0,0,1-2.81,2.74l7.79,13.71H484.16l-6.23-10.53v10.53H464.66Zm13,27.1a22.47,22.47,0,0,0,4.73-.5l5.92,10h1.93L484,424.18a11.74,11.74,0,0,0,5.36-3.64,9.82,9.82,0,0,0,2-6.39,10.32,10.32,0,0,0-1.06-4.8,10.07,10.07,0,0,0-2.9-3.45,12.82,12.82,0,0,0-4.32-2.12,19.52,19.52,0,0,0-5.42-.72h-6.73v31.58h1.62v-9.46Zm-5.11-1.5V404.56h5.11c3.78,0,6.73.83,8.87,2.49a8.46,8.46,0,0,1,3.21,7.1,8.36,8.36,0,0,1-3.21,7.07c-2.14,1.64-5.09,2.46-8.87,2.46Zm5.42-5.17h.68a7.26,7.26,0,0,0,4-1.06,4.64,4.64,0,0,0,0-7.1,7.34,7.34,0,0,0-4-1.06h-.68Z"/><path class="cls-2" d="M513.43,398.08h13.83v30.65h11.46v10.9H513.43Zm21.8,36.56v-1.49h-14V403.06h-1.62v31.58Z"/><path class="cls-2" d="M540.9,398.08h24.48V409H554.17v4.61h11v10.34h-11v4.8h11.65v10.9H540.9Zm20.31,36.56v-1.49H548.75V419.51h11.83V418H548.75V404.56h12.46v-1.5H547.13v31.58Z"/><path class="cls-2" d="M568.43,426.73a21.48,21.48,0,0,0,2.87.69,23.12,23.12,0,0,0,2.83.5,28.51,28.51,0,0,0,3.21.18c1.91,0,2.87-.7,2.87-2.11a2.39,2.39,0,0,0-.88-1.65,23.9,23.9,0,0,0-2.21-1.87c-.89-.69-1.85-1.45-2.86-2.28a20.4,20.4,0,0,1-2.87-2.86,15.06,15.06,0,0,1-2.21-3.65,11.6,11.6,0,0,1-.87-4.64,11.94,11.94,0,0,1,1.06-5.17,10.34,10.34,0,0,1,2.92-3.73,13.13,13.13,0,0,1,4.4-2.28,18.08,18.08,0,0,1,5.38-.78,29.79,29.79,0,0,1,3,.16l2.68.28,2.68.37v11.65l-1.12-.12-1.12-.13c-.42,0-.85-.06-1.31-.06l-.93,0a5,5,0,0,0-1.06.16,2.09,2.09,0,0,0-.87.43,1.09,1.09,0,0,0-.38.88c0,.33.28.74.84,1.24s1.25,1.08,2.06,1.75,1.7,1.43,2.68,2.3a18.79,18.79,0,0,1,2.67,3,17.45,17.45,0,0,1,2.06,3.8,12.73,12.73,0,0,1,.84,4.73,15,15,0,0,1-.87,5.14,11,11,0,0,1-2.71,4.18,13.09,13.09,0,0,1-4.7,2.8,20.29,20.29,0,0,1-6.79,1,42.38,42.38,0,0,1-4.39-.22c-1.35-.15-2.55-.32-3.59-.53a31.18,31.18,0,0,1-3.3-.75Zm5.23,7.48c.59.12,1.21.23,1.87.31s1.2.16,1.84.22,1.3.09,2,.09a14.19,14.19,0,0,0,3.4-.4,8.67,8.67,0,0,0,3-1.34,6.9,6.9,0,0,0,2.08-2.4,7.55,7.55,0,0,0,.78-3.58,7,7,0,0,0-.9-3.43,15.37,15.37,0,0,0-2.31-3.11,38.78,38.78,0,0,0-3-2.87c-1.05-.91-2.05-1.84-3-2.77a17.18,17.18,0,0,1-2.3-2.8,5.31,5.31,0,0,1-.9-2.9,4.28,4.28,0,0,1,1.43-3.46c.95-.81,2.49-1.21,4.61-1.21l1,0q.53,0,1,.09a6.82,6.82,0,0,0,1,.07v-1.62a6.19,6.19,0,0,1-.93-.07c-.29,0-.62-.07-1-.09s-.72,0-1.09,0a9.41,9.41,0,0,0-5.54,1.53,5.38,5.38,0,0,0-2.18,4.76,6.34,6.34,0,0,0,.9,3.27,16.28,16.28,0,0,0,2.3,3c.94,1,1.94,1.92,3,2.83s2.06,1.84,3,2.78A15.1,15.1,0,0,1,586,424a6,6,0,0,1,.9,3.12,5.36,5.36,0,0,1-2,4.54,8.94,8.94,0,0,1-5.58,1.56,21.79,21.79,0,0,1-3.86-.31c-.62-.08-1.22-.19-1.81-.31Z"/><path class="cls-2" d="M636.51,412.22a7.69,7.69,0,0,0-2.8-1.53,11,11,0,0,0-3.3-.53,8.1,8.1,0,0,0-3.3.66,7.76,7.76,0,0,0-2.59,1.81,8.42,8.42,0,0,0-1.71,2.77,9.74,9.74,0,0,0-.62,3.49,9,9,0,0,0,.68,3.48,8.46,8.46,0,0,0,1.87,2.78,8.66,8.66,0,0,0,2.77,1.8,8.77,8.77,0,0,0,3.4.66,8.17,8.17,0,0,0,3.86-.91,9.2,9.2,0,0,0,3-2.46H634v-8.72h16v13.83a23.08,23.08,0,0,1-3.42,4.64,21.64,21.64,0,0,1-4.46,3.58,21.27,21.27,0,0,1-5.32,2.31,21.69,21.69,0,0,1-5.92.81,21.39,21.39,0,0,1-8.47-1.69,21.58,21.58,0,0,1-13.33-20.11,22.34,22.34,0,0,1,1.62-8.48,21.79,21.79,0,0,1,4.45-6.94,20.86,20.86,0,0,1,15.11-6.39,23.4,23.4,0,0,1,6,.69,23.68,23.68,0,0,1,4.3,1.56,15.38,15.38,0,0,1,3.42,2.18Zm.63-8a10.66,10.66,0,0,0-1.81-.63,18.17,18.17,0,0,0-2.05-.43,16.28,16.28,0,0,0-2.62-.19,16,16,0,0,0-6.17,1.18,15.39,15.39,0,0,0-5,3.27,15.09,15.09,0,0,0-3.33,5,16.74,16.74,0,0,0-1.22,6.48,16.37,16.37,0,0,0,1.25,6.47,14.91,14.91,0,0,0,3.42,5,16.19,16.19,0,0,0,11.28,4.45,15.2,15.2,0,0,0,7.78-2,16.54,16.54,0,0,0,5.67-5.39v-8.16h-6.6v1.49h5V427a14.05,14.05,0,0,1-11.83,6.23,14.92,14.92,0,0,1-5.58-1,13.62,13.62,0,0,1-7.63-7.47,14.94,14.94,0,0,1-1.12-5.82,15.13,15.13,0,0,1,1.09-5.83,13.85,13.85,0,0,1,3-4.55,13.18,13.18,0,0,1,4.46-2.92,14.6,14.6,0,0,1,5.54-1,11.07,11.07,0,0,1,2.12.19c.66.12,1.24.24,1.74.37s1.12.33,1.62.5Z"/><path class="cls-2" d="M653.46,398.08h24.48V409H666.72v4.61h11v10.34h-11v4.8h11.65v10.9H653.46Zm20.3,36.56v-1.49H661.3V419.51h11.84V418H661.3V404.56h12.46v-1.5H659.69v31.58Z"/><path class="cls-2" d="M682.11,398.08h24.48V409H695.38v4.61h11v10.34h-11v4.8H707v10.9H682.11Zm20.31,36.56v-1.49H690V419.51h11.83V418H690V404.56h12.46v-1.5H688.34v31.58Z"/><path class="cls-2" d="M710.76,398.08h13.46v9.59l7.84-9.59h16.26l-14.64,19,15.39,22.55h-16l-8.84-12.83v12.83H710.76Zm7.85,36.56v-8.41l6.48-8,11.33,16.44h1.94l-12.15-17.75,11.15-13.83h-2l-16.76,20.68V403.06H717v31.58Z"/><path class="cls-2" d="M749.19,426.73a21.48,21.48,0,0,0,2.87.69,23.12,23.12,0,0,0,2.83.5,28.51,28.51,0,0,0,3.21.18c1.91,0,2.87-.7,2.87-2.11a2.39,2.39,0,0,0-.88-1.65,22.63,22.63,0,0,0-2.21-1.87c-.89-.69-1.85-1.45-2.86-2.28a20.4,20.4,0,0,1-2.87-2.86,15.06,15.06,0,0,1-2.21-3.65,11.6,11.6,0,0,1-.87-4.64,11.94,11.94,0,0,1,1.06-5.17,10.25,10.25,0,0,1,2.93-3.73,13,13,0,0,1,4.39-2.28,18.08,18.08,0,0,1,5.38-.78,29.79,29.79,0,0,1,3,.16l2.68.28,2.68.37v11.65l-1.12-.12-1.12-.13c-.42,0-.85-.06-1.31-.06l-.93,0a5,5,0,0,0-1.06.16,2.09,2.09,0,0,0-.87.43,1.09,1.09,0,0,0-.38.88c0,.33.28.74.84,1.24s1.25,1.08,2.06,1.75,1.7,1.43,2.68,2.3a18.31,18.31,0,0,1,2.67,3,17,17,0,0,1,2.06,3.8,12.73,12.73,0,0,1,.84,4.73,15,15,0,0,1-.87,5.14,11,11,0,0,1-2.71,4.18,13.09,13.09,0,0,1-4.7,2.8,20.29,20.29,0,0,1-6.79,1,42.52,42.52,0,0,1-4.39-.22c-1.35-.15-2.55-.32-3.59-.53a31.18,31.18,0,0,1-3.3-.75Zm5.24,7.48c.58.12,1.2.23,1.86.31s1.2.16,1.84.22,1.3.09,2,.09a14.19,14.19,0,0,0,3.4-.4,8.58,8.58,0,0,0,3-1.34,6.9,6.9,0,0,0,2.08-2.4,7.55,7.55,0,0,0,.78-3.58,7,7,0,0,0-.9-3.43,15.37,15.37,0,0,0-2.31-3.11,40.53,40.53,0,0,0-3-2.87c-1.06-.91-2.06-1.84-3-2.77a16.76,16.76,0,0,1-2.31-2.8,5.31,5.31,0,0,1-.9-2.9,4.28,4.28,0,0,1,1.43-3.46c.95-.81,2.49-1.21,4.61-1.21l1,0q.53,0,1,.09a6.82,6.82,0,0,0,1,.07v-1.62a6.19,6.19,0,0,1-.93-.07c-.29,0-.62-.07-1-.09s-.72,0-1.09,0a9.41,9.41,0,0,0-5.54,1.53,5.38,5.38,0,0,0-2.18,4.76,6.34,6.34,0,0,0,.9,3.27,15.92,15.92,0,0,0,2.31,3,40.32,40.32,0,0,0,3,2.83c1,.92,2,1.84,3,2.78a15.42,15.42,0,0,1,2.3,2.89,6,6,0,0,1,.9,3.12,5.36,5.36,0,0,1-2,4.54,8.94,8.94,0,0,1-5.58,1.56,21.79,21.79,0,0,1-3.86-.31c-.62-.08-1.22-.19-1.8-.31Z"/></svg>